<svg xmlns="http://www.w3.org/2000/svg" xmlns:xlink="http://www.w3.org/1999/xlink" width="376" zoomAndPan="magnify" viewBox="0 0 282 51.749998" height="69" preserveAspectRatio="xMidYMid meet" version="1.0"><defs><g/><clipPath id="edd31b0500"><rect x="0" width="271" y="0" height="38"/></clipPath></defs><g transform="matrix(1, 0, 0, 1, 7, 11)"><g clip-path="url(#edd31b0500)"><g fill="#ff3131" fill-opacity="1"><g transform="translate(0.334673, 28.462509)"><g><path d="M 21.515625 -4.84375 C 21.671875 -4.84375 21.863281 -4.773438 22.09375 -4.640625 C 22.320312 -4.515625 22.4375 -4.203125 22.4375 -3.703125 L 22.4375 -1.109375 C 22.4375 -0.609375 22.320312 -0.289062 22.09375 -0.15625 C 21.863281 -0.03125 21.671875 0.03125 21.515625 0.03125 L 10.703125 0.03125 C 9.265625 0.03125 8.046875 -0.15625 7.046875 -0.53125 C 6.015625 -0.875 5.160156 -1.484375 4.484375 -2.359375 C 3.847656 -3.140625 3.378906 -4.207031 3.078125 -5.5625 C 2.773438 -6.894531 2.625 -8.457031 2.625 -10.25 L 2.625 -25.84375 C 2.625 -26.363281 2.742188 -26.679688 2.984375 -26.796875 C 3.222656 -26.921875 3.414062 -26.984375 3.5625 -26.984375 L 6.578125 -26.984375 C 6.710938 -26.984375 6.898438 -26.921875 7.140625 -26.796875 C 7.378906 -26.679688 7.5 -26.363281 7.5 -25.84375 L 7.5 -9.6875 C 7.5 -9.207031 7.507812 -8.757812 7.53125 -8.34375 C 7.550781 -7.9375 7.59375 -7.566406 7.65625 -7.234375 C 7.75 -6.648438 7.9375 -6.171875 8.21875 -5.796875 C 8.4375 -5.441406 8.753906 -5.203125 9.171875 -5.078125 C 9.609375 -4.921875 10.175781 -4.84375 10.875 -4.84375 Z M 21.515625 -4.84375 "/></g></g></g><g fill="#ff3131" fill-opacity="1"><g transform="translate(27.024142, 28.462509)"><g><path d="M 22.296875 -5.859375 C 22.453125 -5.859375 22.648438 -5.796875 22.890625 -5.671875 C 23.128906 -5.554688 23.25 -5.25 23.25 -4.75 L 23.25 -1.140625 C 23.25 -0.640625 23.128906 -0.328125 22.890625 -0.203125 C 22.648438 -0.0859375 22.453125 -0.03125 22.296875 -0.03125 L 10.671875 -0.03125 C 9.953125 -0.03125 9.285156 -0.0703125 8.671875 -0.15625 C 8.066406 -0.25 7.515625 -0.394531 7.015625 -0.59375 C 5.941406 -0.957031 5.085938 -1.554688 4.453125 -2.390625 C 3.796875 -3.242188 3.328125 -4.3125 3.046875 -5.59375 C 2.929688 -6.144531 2.835938 -6.75 2.765625 -7.40625 C 2.691406 -8.0625 2.644531 -8.769531 2.625 -9.53125 L 2.625 -9.6875 L 2.6875 -13.828125 C 2.75 -14.066406 2.867188 -14.335938 3.046875 -14.640625 C 3.523438 -15.492188 4.265625 -15.953125 5.265625 -16.015625 L 22.171875 -16.046875 C 22.304688 -16.046875 22.492188 -15.984375 22.734375 -15.859375 C 22.972656 -15.742188 23.09375 -15.4375 23.09375 -14.9375 L 23.09375 -12.34375 C 23.09375 -11.84375 22.972656 -11.523438 22.734375 -11.390625 C 22.492188 -11.265625 22.304688 -11.203125 22.171875 -11.203125 L 7.53125 -11.203125 C 7.53125 -11.203125 7.523438 -11.082031 7.515625 -10.84375 C 7.503906 -10.601562 7.492188 -10.328125 7.484375 -10.015625 C 7.472656 -9.710938 7.46875 -9.441406 7.46875 -9.203125 C 7.46875 -8.960938 7.46875 -8.84375 7.46875 -8.84375 C 7.488281 -8.757812 7.5 -8.664062 7.5 -8.5625 C 7.5 -8.46875 7.507812 -8.375 7.53125 -8.28125 C 7.613281 -7.675781 7.800781 -7.1875 8.09375 -6.8125 C 8.351562 -6.488281 8.679688 -6.25 9.078125 -6.09375 C 9.316406 -6.03125 9.570312 -5.972656 9.84375 -5.921875 C 10.113281 -5.878906 10.425781 -5.859375 10.78125 -5.859375 Z M 5.5 -15.75 Z M 22.328125 -27.046875 C 22.460938 -27.046875 22.648438 -26.976562 22.890625 -26.84375 C 23.128906 -26.71875 23.25 -26.40625 23.25 -25.90625 L 23.25 -23.3125 C 23.25 -22.8125 23.128906 -22.492188 22.890625 -22.359375 C 22.648438 -22.234375 22.460938 -22.171875 22.328125 -22.171875 L 3.5 -22.203125 C 3.375 -22.203125 3.195312 -22.257812 2.96875 -22.375 C 2.738281 -22.5 2.625 -22.8125 2.625 -23.3125 L 2.625 -25.875 C 2.625 -26.394531 2.738281 -26.71875 2.96875 -26.84375 C 3.195312 -26.976562 3.375 -27.046875 3.5 -27.046875 Z M 22.328125 -27.046875 "/></g></g></g><g fill="#ff3131" fill-opacity="1"><g transform="translate(54.532306, 28.462509)"><g><path d="M 29.96875 -26.984375 C 31.0625 -26.984375 31.800781 -26.632812 32.1875 -25.9375 C 32.539062 -25.320312 32.71875 -24.265625 32.71875 -22.765625 L 32.71875 -1.109375 C 32.71875 -0.609375 32.597656 -0.289062 32.359375 -0.15625 C 32.117188 -0.03125 31.921875 0.03125 31.765625 0.03125 L 28.953125 0.03125 C 28.816406 0.03125 28.628906 -0.03125 28.390625 -0.15625 C 28.148438 -0.289062 28.03125 -0.609375 28.03125 -1.109375 L 28.03125 -20.796875 C 28.03125 -20.816406 28.03125 -20.832031 28.03125 -20.84375 C 28.03125 -20.851562 28.03125 -20.859375 28.03125 -20.859375 L 27.875 -20.859375 C 27.820312 -20.859375 27.796875 -20.835938 27.796875 -20.796875 L 22.171875 -6.90625 C 21.953125 -6.226562 21.722656 -5.640625 21.484375 -5.140625 C 21.367188 -4.898438 21.238281 -4.679688 21.09375 -4.484375 C 20.957031 -4.285156 20.828125 -4.101562 20.703125 -3.9375 C 20.367188 -3.582031 20.019531 -3.335938 19.65625 -3.203125 C 19.300781 -3.078125 18.863281 -3.015625 18.34375 -3.015625 L 17 -3.015625 C 16.519531 -3.015625 16.082031 -3.078125 15.6875 -3.203125 C 15.488281 -3.273438 15.304688 -3.375 15.140625 -3.5 C 14.984375 -3.632812 14.816406 -3.78125 14.640625 -3.9375 C 14.359375 -4.28125 14.097656 -4.679688 13.859375 -5.140625 C 13.640625 -5.640625 13.410156 -6.226562 13.171875 -6.90625 L 7.5625 -20.765625 C 7.539062 -20.828125 7.507812 -20.859375 7.46875 -20.859375 L 7.296875 -20.859375 C 7.296875 -20.859375 7.296875 -20.851562 7.296875 -20.84375 C 7.296875 -20.832031 7.296875 -20.816406 7.296875 -20.796875 L 7.296875 -1.109375 C 7.296875 -0.609375 7.179688 -0.289062 6.953125 -0.15625 C 6.722656 -0.03125 6.535156 0.03125 6.390625 0.03125 L 3.5625 0.03125 C 3.414062 0.03125 3.222656 -0.03125 2.984375 -0.15625 C 2.742188 -0.289062 2.625 -0.609375 2.625 -1.109375 L 2.625 -22.765625 C 2.625 -24.265625 2.796875 -25.320312 3.140625 -25.9375 C 3.535156 -26.632812 4.289062 -26.984375 5.40625 -26.984375 L 8.421875 -26.984375 C 8.898438 -26.984375 9.28125 -26.941406 9.5625 -26.859375 C 9.9375 -26.742188 10.242188 -26.578125 10.484375 -26.359375 C 10.585938 -26.234375 10.695312 -26.09375 10.8125 -25.9375 C 10.9375 -25.78125 11.046875 -25.601562 11.140625 -25.40625 C 11.222656 -25.21875 11.3125 -24.992188 11.40625 -24.734375 C 11.507812 -24.484375 11.601562 -24.207031 11.6875 -23.90625 L 17.453125 -9.4375 C 17.472656 -9.363281 17.492188 -9.320312 17.515625 -9.3125 C 17.535156 -9.300781 17.546875 -9.296875 17.546875 -9.296875 L 17.875 -9.296875 C 17.925781 -9.296875 17.960938 -9.34375 17.984375 -9.4375 L 23.78125 -23.90625 C 23.882812 -24.207031 23.976562 -24.484375 24.0625 -24.734375 C 24.15625 -24.992188 24.242188 -25.21875 24.328125 -25.40625 C 24.441406 -25.601562 24.550781 -25.78125 24.65625 -25.9375 C 24.769531 -26.09375 24.878906 -26.234375 24.984375 -26.359375 C 25.242188 -26.597656 25.539062 -26.765625 25.875 -26.859375 C 26.15625 -26.941406 26.535156 -26.984375 27.015625 -26.984375 Z M 29.96875 -26.984375 "/></g></g></g><g fill="#ff3131" fill-opacity="1"><g transform="translate(91.504587, 28.462509)"><g><path d="M 24.921875 -24.59375 C 25.554688 -23.8125 26.023438 -22.742188 26.328125 -21.390625 C 26.460938 -20.753906 26.566406 -20.039062 26.640625 -19.25 C 26.710938 -18.46875 26.75 -17.628906 26.75 -16.734375 L 26.75 -10.25 C 26.75 -9.332031 26.710938 -8.476562 26.640625 -7.6875 C 26.566406 -6.90625 26.460938 -6.195312 26.328125 -5.5625 C 26.023438 -4.226562 25.554688 -3.148438 24.921875 -2.328125 C 24.242188 -1.472656 23.394531 -0.875 22.375 -0.53125 C 21.320312 -0.15625 20.085938 0.03125 18.671875 0.03125 L 10.671875 0.03125 C 9.234375 0.03125 8.015625 -0.15625 7.015625 -0.53125 C 5.984375 -0.875 5.128906 -1.484375 4.453125 -2.359375 C 3.796875 -3.210938 3.328125 -4.28125 3.046875 -5.5625 C 2.890625 -6.195312 2.78125 -6.90625 2.71875 -7.6875 C 2.65625 -8.476562 2.625 -9.332031 2.625 -10.25 L 2.625 -16.734375 C 2.625 -18.609375 2.765625 -20.160156 3.046875 -21.390625 C 3.328125 -22.671875 3.796875 -23.738281 4.453125 -24.59375 C 5.128906 -25.425781 5.984375 -26.035156 7.015625 -26.421875 C 8.054688 -26.796875 9.273438 -26.984375 10.671875 -26.984375 L 18.671875 -26.984375 C 20.085938 -26.984375 21.320312 -26.796875 22.375 -26.421875 C 23.394531 -26.035156 24.242188 -25.425781 24.921875 -24.59375 Z M 21.875 -17.296875 C 21.875 -17.773438 21.863281 -18.210938 21.84375 -18.609375 C 21.820312 -19.015625 21.78125 -19.382812 21.71875 -19.71875 C 21.625 -20.320312 21.4375 -20.8125 21.15625 -21.1875 C 20.9375 -21.488281 20.609375 -21.726562 20.171875 -21.90625 C 19.953125 -21.976562 19.707031 -22.035156 19.4375 -22.078125 C 19.164062 -22.117188 18.851562 -22.140625 18.5 -22.140625 L 10.84375 -22.140625 C 10.488281 -22.140625 10.175781 -22.117188 9.90625 -22.078125 C 9.632812 -22.035156 9.390625 -21.976562 9.171875 -21.90625 C 8.734375 -21.726562 8.40625 -21.488281 8.1875 -21.1875 C 8.050781 -21.007812 7.941406 -20.796875 7.859375 -20.546875 C 7.773438 -20.296875 7.695312 -20.019531 7.625 -19.71875 C 7.582031 -19.382812 7.546875 -19.015625 7.515625 -18.609375 C 7.484375 -18.210938 7.46875 -17.773438 7.46875 -17.296875 L 7.46875 -9.65625 C 7.46875 -9.175781 7.484375 -8.734375 7.515625 -8.328125 C 7.546875 -7.929688 7.582031 -7.566406 7.625 -7.234375 C 7.695312 -6.953125 7.773438 -6.6875 7.859375 -6.4375 C 7.941406 -6.1875 8.050781 -5.972656 8.1875 -5.796875 C 8.40625 -5.441406 8.734375 -5.203125 9.171875 -5.078125 C 9.566406 -4.921875 10.125 -4.84375 10.84375 -4.84375 L 18.5 -4.84375 C 19.21875 -4.84375 19.773438 -4.921875 20.171875 -5.078125 C 20.609375 -5.203125 20.9375 -5.441406 21.15625 -5.796875 C 21.414062 -6.117188 21.601562 -6.597656 21.71875 -7.234375 C 21.78125 -7.566406 21.820312 -7.929688 21.84375 -8.328125 C 21.863281 -8.734375 21.875 -9.175781 21.875 -9.65625 Z M 21.875 -17.296875 "/></g></g></g><g fill="#34d4e3" fill-opacity="1"><g transform="translate(122.528401, 28.462509)"><g><path d="M 28.71875 -27.34375 C 28.957031 -27.34375 29.128906 -27.285156 29.234375 -27.171875 C 29.347656 -27.066406 29.414062 -26.972656 29.4375 -26.890625 C 29.507812 -26.671875 29.476562 -26.394531 29.34375 -26.0625 L 20.234375 -3.40625 C 19.734375 -2.207031 19.253906 -1.410156 18.796875 -1.015625 C 18.691406 -0.898438 18.53125 -0.789062 18.3125 -0.6875 C 17.632812 -0.207031 16.878906 0.03125 16.046875 0.03125 C 15.148438 0.03125 14.335938 -0.238281 13.609375 -0.78125 C 12.878906 -1.332031 12.394531 -2.046875 12.15625 -2.921875 C 12.132812 -2.984375 12.097656 -3.054688 12.046875 -3.140625 C 12.003906 -3.234375 11.960938 -3.320312 11.921875 -3.40625 L 2.75 -26.0625 C 2.613281 -26.394531 2.582031 -26.671875 2.65625 -26.890625 C 2.675781 -26.953125 2.734375 -27.039062 2.828125 -27.15625 C 2.929688 -27.28125 3.101562 -27.34375 3.34375 -27.34375 L 6.875 -27.34375 C 7.351562 -27.34375 7.660156 -27.113281 7.796875 -26.65625 L 15.953125 -6.390625 C 15.972656 -6.367188 15.984375 -6.34375 15.984375 -6.3125 C 15.984375 -6.289062 15.984375 -6.28125 15.984375 -6.28125 L 16.109375 -6.328125 C 16.109375 -6.328125 16.113281 -6.332031 16.125 -6.34375 C 16.132812 -6.351562 16.140625 -6.367188 16.140625 -6.390625 L 24.171875 -26.65625 C 24.367188 -27.113281 24.6875 -27.34375 25.125 -27.34375 Z M 28.71875 -27.34375 "/></g></g></g><g fill="#34d4e3" fill-opacity="1"><g transform="translate(156.258654, 28.462509)"><g><path d="M 22.296875 -5.859375 C 22.453125 -5.859375 22.648438 -5.796875 22.890625 -5.671875 C 23.128906 -5.554688 23.25 -5.25 23.25 -4.75 L 23.25 -1.140625 C 23.25 -0.640625 23.128906 -0.328125 22.890625 -0.203125 C 22.648438 -0.0859375 22.453125 -0.03125 22.296875 -0.03125 L 10.671875 -0.03125 C 9.953125 -0.03125 9.285156 -0.0703125 8.671875 -0.15625 C 8.066406 -0.25 7.515625 -0.394531 7.015625 -0.59375 C 5.941406 -0.957031 5.085938 -1.554688 4.453125 -2.390625 C 3.796875 -3.242188 3.328125 -4.3125 3.046875 -5.59375 C 2.929688 -6.144531 2.835938 -6.75 2.765625 -7.40625 C 2.691406 -8.0625 2.644531 -8.769531 2.625 -9.53125 L 2.625 -9.6875 L 2.6875 -13.828125 C 2.75 -14.066406 2.867188 -14.335938 3.046875 -14.640625 C 3.523438 -15.492188 4.265625 -15.953125 5.265625 -16.015625 L 22.171875 -16.046875 C 22.304688 -16.046875 22.492188 -15.984375 22.734375 -15.859375 C 22.972656 -15.742188 23.09375 -15.4375 23.09375 -14.9375 L 23.09375 -12.34375 C 23.09375 -11.84375 22.972656 -11.523438 22.734375 -11.390625 C 22.492188 -11.265625 22.304688 -11.203125 22.171875 -11.203125 L 7.53125 -11.203125 C 7.53125 -11.203125 7.523438 -11.082031 7.515625 -10.84375 C 7.503906 -10.601562 7.492188 -10.328125 7.484375 -10.015625 C 7.472656 -9.710938 7.46875 -9.441406 7.46875 -9.203125 C 7.46875 -8.960938 7.46875 -8.84375 7.46875 -8.84375 C 7.488281 -8.757812 7.5 -8.664062 7.5 -8.5625 C 7.5 -8.46875 7.507812 -8.375 7.53125 -8.28125 C 7.613281 -7.675781 7.800781 -7.1875 8.09375 -6.8125 C 8.351562 -6.488281 8.679688 -6.25 9.078125 -6.09375 C 9.316406 -6.03125 9.570312 -5.972656 9.84375 -5.921875 C 10.113281 -5.878906 10.425781 -5.859375 10.78125 -5.859375 Z M 5.5 -15.75 Z M 22.328125 -27.046875 C 22.460938 -27.046875 22.648438 -26.976562 22.890625 -26.84375 C 23.128906 -26.71875 23.25 -26.40625 23.25 -25.90625 L 23.25 -23.3125 C 23.25 -22.8125 23.128906 -22.492188 22.890625 -22.359375 C 22.648438 -22.234375 22.460938 -22.171875 22.328125 -22.171875 L 3.5 -22.203125 C 3.375 -22.203125 3.195312 -22.257812 2.96875 -22.375 C 2.738281 -22.5 2.625 -22.8125 2.625 -23.3125 L 2.625 -25.875 C 2.625 -26.394531 2.738281 -26.71875 2.96875 -26.84375 C 3.195312 -26.976562 3.375 -27.046875 3.5 -27.046875 Z M 22.328125 -27.046875 "/></g></g></g><g fill="#34d4e3" fill-opacity="1"><g transform="translate(183.766818, 28.462509)"><g><path d="M 24.953125 -19.15625 L 24.953125 -18.96875 C 24.953125 -18.988281 24.953125 -19.003906 24.953125 -19.015625 C 24.953125 -19.023438 24.953125 -19.039062 24.953125 -19.0625 C 24.953125 -19.082031 24.953125 -19.097656 24.953125 -19.109375 C 24.953125 -19.117188 24.953125 -19.132812 24.953125 -19.15625 Z M 25.578125 -1.40625 C 25.710938 -1.226562 25.753906 -0.96875 25.703125 -0.625 C 25.640625 -0.1875 25.390625 0.03125 24.953125 0.03125 L 21.359375 0.03125 C 21.066406 0.03125 20.835938 -0.03125 20.671875 -0.15625 C 20.597656 -0.207031 20.535156 -0.273438 20.484375 -0.359375 C 20.429688 -0.441406 20.375 -0.53125 20.3125 -0.625 L 14.375 -11.140625 L 7.46875 -11.140625 L 7.46875 -1.109375 C 7.46875 -0.609375 7.351562 -0.289062 7.125 -0.15625 C 6.894531 -0.03125 6.703125 0.03125 6.546875 0.03125 L 3.5625 0.03125 C 3.414062 0.03125 3.222656 -0.03125 2.984375 -0.15625 C 2.742188 -0.289062 2.625 -0.609375 2.625 -1.109375 L 2.625 -14.875 C 2.625 -15.375 2.742188 -15.679688 2.984375 -15.796875 C 3.222656 -15.921875 3.414062 -15.984375 3.5625 -15.984375 L 17.8125 -15.984375 C 18.644531 -15.984375 19.222656 -16.222656 19.546875 -16.703125 C 19.898438 -17.179688 20.078125 -17.96875 20.078125 -19.0625 C 20.078125 -20.15625 19.898438 -20.941406 19.546875 -21.421875 C 19.222656 -21.898438 18.644531 -22.140625 17.8125 -22.140625 L 3.5625 -22.140625 C 3.414062 -22.140625 3.222656 -22.195312 2.984375 -22.3125 C 2.742188 -22.4375 2.625 -22.75 2.625 -23.25 L 2.625 -25.84375 C 2.625 -26.363281 2.742188 -26.679688 2.984375 -26.796875 C 3.222656 -26.921875 3.414062 -26.984375 3.5625 -26.984375 L 18.671875 -26.984375 C 20.921875 -26.984375 22.535156 -26.285156 23.515625 -24.890625 C 24.453125 -23.535156 24.929688 -21.59375 24.953125 -19.0625 C 24.929688 -16.53125 24.453125 -14.585938 23.515625 -13.234375 C 22.679688 -12.097656 21.457031 -11.429688 19.84375 -11.234375 Z M 25.578125 -1.40625 "/></g></g></g><g fill="#34d4e3" fill-opacity="1"><g transform="translate(213.763821, 28.462509)"><g><path d="M 18.4375 -16.109375 C 20.144531 -16.109375 21.441406 -15.507812 22.328125 -14.3125 C 23.179688 -13.132812 23.609375 -11.472656 23.609375 -9.328125 L 23.609375 -6.453125 C 23.609375 -4.578125 23.195312 -3.035156 22.375 -1.828125 C 21.519531 -0.609375 20.1875 0 18.375 0 L 3.609375 0 C 3.453125 0 3.253906 -0.0546875 3.015625 -0.171875 C 2.773438 -0.296875 2.65625 -0.609375 2.65625 -1.109375 L 2.65625 -3.734375 C 2.65625 -4.234375 2.773438 -4.539062 3.015625 -4.65625 C 3.253906 -4.78125 3.453125 -4.84375 3.609375 -4.84375 L 17.59375 -4.84375 C 17.875 -4.84375 18.070312 -4.890625 18.1875 -4.984375 C 18.3125 -5.085938 18.40625 -5.179688 18.46875 -5.265625 C 18.664062 -5.597656 18.765625 -6.054688 18.765625 -6.640625 L 18.765625 -9.46875 C 18.765625 -10.269531 18.632812 -10.769531 18.375 -10.96875 C 18.113281 -11.164062 17.863281 -11.265625 17.625 -11.265625 L 7.796875 -11.265625 C 7.117188 -11.265625 6.425781 -11.351562 5.71875 -11.53125 C 5.007812 -11.707031 4.398438 -12.132812 3.890625 -12.8125 C 3.046875 -14.007812 2.625 -15.753906 2.625 -18.046875 L 2.625 -20.53125 C 2.625 -22.457031 3.046875 -24.007812 3.890625 -25.1875 C 4.742188 -26.382812 6.066406 -26.984375 7.859375 -26.984375 L 21.96875 -26.984375 C 22.101562 -26.984375 22.289062 -26.921875 22.53125 -26.796875 C 22.769531 -26.679688 22.890625 -26.375 22.890625 -25.875 L 22.890625 -23.25 C 22.890625 -22.75 22.769531 -22.4375 22.53125 -22.3125 C 22.289062 -22.195312 22.101562 -22.140625 21.96875 -22.140625 L 8.640625 -22.140625 C 8.359375 -22.140625 8.15625 -22.09375 8.03125 -22 C 7.914062 -21.914062 7.828125 -21.820312 7.765625 -21.71875 C 7.585938 -21.363281 7.5 -20.90625 7.5 -20.34375 L 7.5 -17.921875 C 7.5 -17.109375 7.625 -16.601562 7.875 -16.40625 C 8.125 -16.207031 8.367188 -16.109375 8.609375 -16.109375 Z M 18.4375 -16.109375 "/></g></g></g><g fill="#34d4e3" fill-opacity="1"><g transform="translate(241.63221, 28.462509)"><g><path d="M 22.296875 -5.859375 C 22.453125 -5.859375 22.648438 -5.796875 22.890625 -5.671875 C 23.128906 -5.554688 23.25 -5.25 23.25 -4.75 L 23.25 -1.140625 C 23.25 -0.640625 23.128906 -0.328125 22.890625 -0.203125 C 22.648438 -0.0859375 22.453125 -0.03125 22.296875 -0.03125 L 10.671875 -0.03125 C 9.953125 -0.03125 9.285156 -0.0703125 8.671875 -0.15625 C 8.066406 -0.25 7.515625 -0.394531 7.015625 -0.59375 C 5.941406 -0.957031 5.085938 -1.554688 4.453125 -2.390625 C 3.796875 -3.242188 3.328125 -4.3125 3.046875 -5.59375 C 2.929688 -6.144531 2.835938 -6.75 2.765625 -7.40625 C 2.691406 -8.0625 2.644531 -8.769531 2.625 -9.53125 L 2.625 -9.6875 L 2.6875 -13.828125 C 2.75 -14.066406 2.867188 -14.335938 3.046875 -14.640625 C 3.523438 -15.492188 4.265625 -15.953125 5.265625 -16.015625 L 22.171875 -16.046875 C 22.304688 -16.046875 22.492188 -15.984375 22.734375 -15.859375 C 22.972656 -15.742188 23.09375 -15.4375 23.09375 -14.9375 L 23.09375 -12.34375 C 23.09375 -11.84375 22.972656 -11.523438 22.734375 -11.390625 C 22.492188 -11.265625 22.304688 -11.203125 22.171875 -11.203125 L 7.53125 -11.203125 C 7.53125 -11.203125 7.523438 -11.082031 7.515625 -10.84375 C 7.503906 -10.601562 7.492188 -10.328125 7.484375 -10.015625 C 7.472656 -9.710938 7.46875 -9.441406 7.46875 -9.203125 C 7.46875 -8.960938 7.46875 -8.84375 7.46875 -8.84375 C 7.488281 -8.757812 7.5 -8.664062 7.5 -8.5625 C 7.5 -8.46875 7.507812 -8.375 7.53125 -8.28125 C 7.613281 -7.675781 7.800781 -7.1875 8.09375 -6.8125 C 8.351562 -6.488281 8.679688 -6.25 9.078125 -6.09375 C 9.316406 -6.03125 9.570312 -5.972656 9.84375 -5.921875 C 10.113281 -5.878906 10.425781 -5.859375 10.78125 -5.859375 Z M 5.5 -15.75 Z M 22.328125 -27.046875 C 22.460938 -27.046875 22.648438 -26.976562 22.890625 -26.84375 C 23.128906 -26.71875 23.25 -26.40625 23.25 -25.90625 L 23.25 -23.3125 C 23.25 -22.8125 23.128906 -22.492188 22.890625 -22.359375 C 22.648438 -22.234375 22.460938 -22.171875 22.328125 -22.171875 L 3.5 -22.203125 C 3.375 -22.203125 3.195312 -22.257812 2.96875 -22.375 C 2.738281 -22.5 2.625 -22.8125 2.625 -23.3125 L 2.625 -25.875 C 2.625 -26.394531 2.738281 -26.71875 2.96875 -26.84375 C 3.195312 -26.976562 3.375 -27.046875 3.5 -27.046875 Z M 22.328125 -27.046875 "/></g></g></g></g></g></svg>